<svg xmlns="http://www.w3.org/2000/svg" version="1.1" xmlns:xlink="http://www.w3.org/1999/xlink" xmlns:svgjs="http://svgjs.dev/svgjs" width="1000" height="277" viewBox="0 0 1000 277"><g transform="matrix(1,0,0,1,-0.6060606060606233,-0.48095228662717204)"><svg viewBox="0 0 396 110" data-background-color="#729343" preserveAspectRatio="xMidYMid meet" height="277" width="1000" xmlns="http://www.w3.org/2000/svg" xmlns:xlink="http://www.w3.org/1999/xlink"><g id="tight-bounds" transform="matrix(1,0,0,1,0.2400000000000091,0.19099188277613166)"><svg viewBox="0 0 395.52 109.61801623444775" height="109.61801623444775" width="395.52"><g><svg viewBox="0 0 591.1155559103877 163.8271505972378" height="109.61801623444775" width="395.52"><g transform="matrix(1,0,0,1,195.59555591038767,48.27143747737714)"><svg viewBox="0 0 395.52 67.28427564248351" height="67.28427564248351" width="395.52"><g><svg viewBox="0 0 395.52 67.28427564248351" height="67.28427564248351" width="395.52"><g><svg viewBox="0 0 395.52 67.28427564248351" height="67.28427564248351" width="395.52"><g transform="matrix(1,0,0,1,0,0)"><svg width="395.52" viewBox="1.809999942779541 -36.040000915527344 215.4600067138672 36.53000259399414" height="67.28427564248351" data-palette-color="#0072b1"><g class="undefined-text-0" data-fill-palette-color="primary" id="text-0"><path d="M22.19-9.16L22.19-9.16Q22.19-11.5 20.54-12.77 18.9-14.04 14.6-15.33 10.3-16.63 7.76-18.21L7.76-18.21Q2.91-21.26 2.91-26.17L2.91-26.17Q2.91-30.47 6.41-33.25 9.91-36.04 15.5-36.04L15.5-36.04Q19.21-36.04 22.12-34.67 25.02-33.3 26.68-30.77 28.34-28.25 28.34-25.17L28.34-25.17 22.19-25.17Q22.19-27.95 20.45-29.53 18.7-31.1 15.45-31.1L15.45-31.1Q12.43-31.1 10.75-29.81 9.08-28.52 9.08-26.2L9.08-26.2Q9.08-24.24 10.89-22.94 12.7-21.63 16.85-20.4 21-19.17 23.51-17.59 26.03-16.02 27.2-13.98 28.37-11.94 28.37-9.2L28.37-9.2Q28.37-4.76 24.96-2.14 21.56 0.49 15.72 0.49L15.72 0.49Q11.87 0.49 8.63-0.94 5.4-2.37 3.6-4.88 1.81-7.4 1.81-10.74L1.81-10.74 7.98-10.74Q7.98-7.71 9.99-6.05 11.99-4.39 15.72-4.39L15.72-4.39Q18.95-4.39 20.57-5.7 22.19-7.01 22.19-9.16ZM53.64-35.55L59.79-35.55 59.79-11.79Q59.79-6.13 56.16-2.82 52.54 0.49 46.51 0.49L46.51 0.49Q40.4 0.49 36.81-2.77 33.23-6.03 33.23-11.82L33.23-11.82 33.23-35.55 39.38-35.55 39.38-11.77Q39.38-8.2 41.18-6.32 42.99-4.44 46.51-4.44L46.51-4.44Q53.64-4.44 53.64-11.96L53.64-11.96 53.64-35.55ZM79.9-13.21L72.55-13.21 72.55 0 66.38 0 66.38-35.55 79.98-35.55Q85.93-35.55 89.44-32.45 92.94-29.35 92.94-24.24L92.94-24.24Q92.94-19.02 89.51-16.11 86.08-13.21 79.9-13.21L79.9-13.21ZM72.55-30.57L72.55-18.16 79.98-18.16Q83.27-18.16 85-19.71 86.74-21.26 86.74-24.19L86.74-24.19Q86.74-27.08 84.98-28.8 83.22-30.52 80.15-30.57L80.15-30.57 72.55-30.57ZM119.11-20.75L119.11-15.87 104.51-15.87 104.51-4.93 121.57-4.93 121.57 0 98.33 0 98.33-35.55 121.4-35.55 121.4-30.57 104.51-30.57 104.51-20.75 119.11-20.75ZM146.79 0L139.66-13.7 132.78-13.7 132.78 0 126.6 0 126.6-35.55 139.1-35.55Q145.25-35.55 148.6-32.79 151.94-30.03 151.94-24.8L151.94-24.8Q151.94-21.24 150.22-18.84 148.5-16.43 145.42-15.14L145.42-15.14 153.41-0.32 153.41 0 146.79 0ZM132.78-30.57L132.78-18.65 139.13-18.65Q142.25-18.65 144.01-20.23 145.77-21.8 145.77-24.54L145.77-24.54Q145.77-27.39 144.14-28.96 142.52-30.52 139.3-30.57L139.3-30.57 132.78-30.57ZM161.39-35.55L170.32-7.74 179.36-35.55 186.14-35.55 173.35 0 167.37 0 154.63-35.55 161.39-35.55ZM211.12-11.57L217.27-11.57Q216.73-5.88 213.07-2.7 209.41 0.49 203.33 0.49L203.33 0.49Q199.08 0.49 195.85-1.53 192.61-3.54 190.85-7.25 189.1-10.96 189.02-15.87L189.02-15.87 189.02-19.19Q189.02-24.22 190.81-28.05 192.59-31.88 195.92-33.96 199.25-36.04 203.62-36.04L203.62-36.04Q209.51-36.04 213.1-32.84 216.68-29.64 217.27-23.8L217.27-23.8 211.12-23.8Q210.68-27.64 208.88-29.33 207.09-31.03 203.62-31.03L203.62-31.03Q199.59-31.03 197.43-28.09 195.27-25.15 195.22-19.46L195.22-19.46 195.22-16.31Q195.22-10.55 197.29-7.52 199.35-4.49 203.33-4.49L203.33-4.49Q206.97-4.49 208.8-6.13 210.63-7.76 211.12-11.57L211.12-11.57Z" fill="#0072b1" data-fill-palette-color="primary"></path></g></svg></g></svg></g></svg></g></svg></g><g><svg viewBox="0 0 163.8271505972378 163.8271505972378" height="163.8271505972378" width="163.8271505972378"><g><svg></svg></g><g id="icon-0"><svg viewBox="0 0 163.8271505972378 163.8271505972378" height="163.8271505972378" width="163.8271505972378"><g><path d="M0 81.914c0-45.24 36.674-81.914 81.914-81.914 45.24 0 81.914 36.674 81.913 81.914 0 45.24-36.674 81.914-81.913 81.913-45.24 0-81.914-36.674-81.914-81.913zM81.914 157.759c41.888 0 75.846-33.957 75.845-75.845 0-41.888-33.957-75.846-75.845-75.846-41.888 0-75.846 33.957-75.846 75.846 0 41.888 33.957 75.846 75.846 75.845z" data-fill-palette-color="accent" fill="#0072b1" stroke="transparent"></path></g><g transform="matrix(1,0,0,1,34.510340040632975,39.44456802976919)"><svg viewBox="0 0 94.80647051597184 84.93801453769942" height="84.93801453769942" width="94.80647051597184"><g><svg xmlns="http://www.w3.org/2000/svg" xmlns:xlink="http://www.w3.org/1999/xlink" version="1.1" x="0" y="0" viewBox="0.9850000143051147 6.086999893188477 98.02999877929688 87.82600402832031" enable-background="new 0 0 100 100" xml:space="preserve" height="84.93801453769942" width="94.80647051597184" class="icon-a-0" data-fill-palette-color="accent" id="a-0"><path d="M50 6.087C22.93 6.087 0.985 25.748 0.985 50 0.985 74.253 22.93 93.913 50 93.913c27.07 0 49.015-19.66 49.015-43.913C99.015 25.748 77.07 6.087 50 6.087zM74.833 69.08c-32.125 19.166-60.851-0.667-66.379-6.454 14.492 11.331 37.288 14.851 56.379 6.787C76.146 64.037 82.172 56.755 85 47.079c2.829-10.751-0.536-20.965-11.143-27.954-9.899-6.451-22.628-8.601-35.355-5.376-9.899 3.226-17.678 9.139-20.506 17.74-3.535 9.139 2.829 18.277 13.435 23.115 10.606 3.763 25.456 2.15 31.113-6.45 3.535-5.914 2.121-13.44-5.657-17.203-3.535-1.613-8.303-1.955-10.86 0.174-3.521 2.932 1.89 0.361 5.874 2.206 2.517 1.165 5.6 3.165 4.986 8.372-0.772 6.559-11.313 9.677-18.385 7.526-7.778-2.688-11.314-8.601-10.606-14.515 1.414-6.451 7.778-11.289 15.557-12.902 13.435-2.688 25.455 4.301 29.698 13.978 3.535 9.138-2.121 17.739-12.021 23.115-8.484 4.301-18.385 5.376-27.577 2.688-13.435-3.763-22.627-12.901-23.334-24.19C9.511 22.888 22.238 12.137 39.916 8.374c19.799-3.225 39.598 4.301 48.083 18.277C95.777 41.166 91.609 59.071 74.833 69.08z" fill="#0072b1" data-fill-palette-color="accent"></path></svg></g></svg></g></svg></g></svg></g></svg></g><defs></defs></svg><rect width="395.52" height="109.61801623444775" fill="none" stroke="none" visibility="hidden"></rect></g></svg></g></svg>