<svg xmlns="http://www.w3.org/2000/svg" version="1.1" xmlns:xlink="http://www.w3.org/1999/xlink" xmlns:svgjs="http://svgjs.dev/svgjs" width="1000" height="750" viewBox="0 0 1000 750"><rect width="1000" height="750" fill="#ffffff"></rect><g transform="matrix(0.834,0,0,0.834,82.49455414395794,276.68732305817014)"><svg viewBox="0 0 396 94" data-background-color="#ffffff" preserveAspectRatio="xMidYMid meet" height="237" width="1000" xmlns="http://www.w3.org/2000/svg" xmlns:xlink="http://www.w3.org/1999/xlink"><g id="tight-bounds" transform="matrix(1,0,0,1,0.23999587409190326,-0.24554719499334965)"><svg viewBox="0 0 395.52 94.49087429055434" height="94.49087429055434" width="395.52"><g><svg viewBox="0 0 554.4499144413746 132.45969145906287" height="94.49087429055434" width="395.52"><g transform="matrix(1,0,0,1,158.9299144413747,38.19838236359013)"><svg viewBox="0 0 395.52 56.06292673188261" height="56.06292673188261" width="395.52"><g><svg viewBox="0 0 395.52 56.06292673188261" height="56.06292673188261" width="395.52"><g><svg viewBox="0 0 395.52 56.06292673188261" height="56.06292673188261" width="395.52"><g transform="matrix(1,0,0,1,0,0)"><svg width="395.52" viewBox="3 -34.900001525878906 250.42999267578125 35.5" height="56.06292673188261" data-palette-color="#41c19e"><g class="undefined-text-0" data-fill-palette-color="primary" id="text-0"><path d="M3 0L3-34.3 17.75-34.3Q20.45-34.3 22.58-33.23 24.7-32.15 25.9-30.23 27.1-28.3 27.1-25.8L27.1-25.8Q27.1-22.95 25.63-20.88 24.15-18.8 21.85-18L21.85-18 21.85-17.8Q24.5-17 26.2-14.7 27.9-12.4 27.9-9.2L27.9-9.2Q27.9-6.4 26.53-4.33 25.15-2.25 22.85-1.13 20.55 0 17.75 0L17.75 0 3 0ZM9.4-20.4L16-20.4Q18.2-20.4 19.38-21.6 20.55-22.8 20.55-24.65L20.55-24.65Q20.55-26.55 19.4-27.58 18.25-28.6 16.3-28.6L16.3-28.6 9.4-28.6 9.4-20.4ZM9.4-5.7L16.7-5.7Q18.75-5.7 20.05-6.83 21.35-7.95 21.35-10L21.35-10Q21.35-12.1 20.08-13.43 18.8-14.75 16.4-14.75L16.4-14.75 9.4-14.75 9.4-5.7ZM40.1 0L40.1-12.95 29.6-34.3 36.35-34.3 43.35-19.25 43.55-19.25 50.5-34.3 56.95-34.3 46.5-12.95 46.5 0 40.1 0ZM66.3 0L66.3-28.6 57.8-28.6 57.8-34.3 81.2-34.3 81.2-28.6 72.7-28.6 72.7 0 66.3 0ZM84.99 0L84.99-34.3 106.84-34.3 106.84-28.6 91.39-28.6 91.39-20.4 104.64-20.4 104.64-14.7 91.39-14.7 91.39-5.7 107.14-5.7 107.14 0 84.99 0ZM122.69 0.6Q119.44 0.6 116.74-0.63 114.04-1.85 112.44-4.25 110.84-6.65 110.84-10.05L110.84-10.05 110.89-11.15 117.54-11.15 117.49-10.35Q117.49-7.85 118.94-6.38 120.39-4.9 122.99-4.9L122.99-4.9Q125.64-4.9 126.92-6.08 128.19-7.25 128.19-8.95L128.19-8.95Q128.19-10.65 127.29-11.73 126.39-12.8 125.06-13.4 123.74-14 121.34-14.8L121.34-14.8Q118.19-15.8 116.24-16.8 114.29-17.8 112.92-19.85 111.54-21.9 111.54-25.3L111.54-25.3Q111.54-28.4 113.09-30.58 114.64-32.75 117.24-33.83 119.84-34.9 122.99-34.9L122.99-34.9Q127.89-34.9 131.02-32.38 134.14-29.85 134.14-24.8L134.14-24.8 134.14-24.2 127.59-24.2 127.59-24.65Q127.59-26.85 126.34-28.13 125.09-29.4 122.94-29.4L122.94-29.4Q120.69-29.4 119.42-28.38 118.14-27.35 118.14-25.75L118.14-25.75Q118.14-24.35 118.99-23.45 119.84-22.55 121.12-22 122.39-21.45 124.64-20.75L124.64-20.75Q127.89-19.7 129.89-18.73 131.89-17.75 133.34-15.7 134.79-13.65 134.79-10.3L134.79-10.3Q134.79-4.65 131.56-2.02 128.34 0.6 122.69 0.6L122.69 0.6ZM136.69 0L147.74-34.3 155.19-34.3 166.24 0 159.69 0 157.59-6.75 144.94-6.75 142.89 0 136.69 0ZM146.69-12.45L155.84-12.45 152.39-23.9Q151.89-25.6 151.39-28.55L151.39-28.55 151.19-28.55Q150.69-25.4 150.19-23.9L150.19-23.9 146.69-12.45ZM169.28 0L169.28-34.3 175.69-34.3 175.69-6 190.19-6 190.19 0 169.28 0ZM206.43-13.15L206.43-18.65 220.68-18.65 220.68 0 216.53 0 215.43-3.8Q213.78-1.65 211.41-0.53 209.03 0.6 206.28 0.6L206.28 0.6Q199.83 0.6 196.43-3.78 193.03-8.15 193.03-17.15L193.03-17.15Q193.03-26.1 196.78-30.5 200.53-34.9 207.58-34.9L207.58-34.9Q211.13-34.9 214.11-33.43 217.08-31.95 218.88-29.1 220.68-26.25 220.68-22.3L220.68-22.3 214.13-22.3Q214.13-25.65 212.21-27.53 210.28-29.4 207.38-29.4L207.38-29.4Q203.48-29.4 201.56-26.55 199.63-23.7 199.63-18.4L199.63-18.4 199.63-15.9Q199.63-10.55 201.56-7.73 203.48-4.9 207.43-4.9L207.43-4.9Q210.38-4.9 212.26-7.18 214.13-9.45 214.13-13.15L214.13-13.15 206.43-13.15ZM239.18 0.6Q232.38 0.6 228.66-3.83 224.93-8.25 224.93-17.15L224.93-17.15Q224.93-26.05 228.66-30.48 232.38-34.9 239.18-34.9L239.18-34.9Q245.98-34.9 249.71-30.48 253.43-26.05 253.43-17.15L253.43-17.15Q253.43-8.25 249.71-3.83 245.98 0.6 239.18 0.6L239.18 0.6ZM239.18-4.9Q242.93-4.9 244.88-7.78 246.83-10.65 246.83-15.9L246.83-15.9 246.83-18.4Q246.83-23.65 244.88-26.53 242.93-29.4 239.18-29.4L239.18-29.4Q235.43-29.4 233.48-26.53 231.53-23.65 231.53-18.4L231.53-18.4 231.53-15.9Q231.53-10.65 233.48-7.78 235.43-4.9 239.18-4.9L239.18-4.9Z" fill="#41c19e" data-fill-palette-color="primary"></path></g></svg></g></svg></g></svg></g></svg></g><g><svg viewBox="0 0 132.45969145906287 132.45969145906287" height="132.45969145906287" width="132.45969145906287"><g><svg></svg></g><g id="icon-0"><svg viewBox="0 0 132.45969145906287 132.45969145906287" height="132.45969145906287" width="132.45969145906287"><g><path d="M0 66.23c0-36.578 29.652-66.23 66.23-66.23 36.578 0 66.23 29.652 66.23 66.23 0 36.578-29.652 66.23-66.23 66.23-36.578 0-66.23-29.652-66.23-66.23zM66.23 127.404c33.785 0 61.174-27.389 61.174-61.174 0-33.785-27.389-61.174-61.174-61.174-33.785 0-61.174 27.389-61.174 61.174 0 33.785 27.389 61.174 61.174 61.174z" data-fill-palette-color="accent" fill="#41c19e" stroke="transparent"></path></g><g transform="matrix(1,0,0,1,36.34726292267646,31.615225673303087)"><svg viewBox="0 0 59.765165613709954 69.2292401124567" height="69.2292401124567" width="59.765165613709954"><g><svg xmlns="http://www.w3.org/2000/svg" xmlns:xlink="http://www.w3.org/1999/xlink" version="1.1" x="0" y="0" viewBox="9.63800048828125 3.246999979019165 80.7239990234375 93.50699615478516" enable-background="new 0 0 100 100" xml:space="preserve" height="69.2292401124567" width="59.765165613709954" class="icon-a-0" data-fill-palette-color="accent" id="a-0"><g fill="#41c19e" data-fill-palette-color="accent"><g fill="#41c19e" data-fill-palette-color="accent"><polygon points="36.703,11.011 9.638,26.636 9.638,38.757 36.703,23.131 63.767,38.757 63.767,26.636   " fill="#41c19e" data-fill-palette-color="accent"></polygon></g><g fill="#41c19e" data-fill-palette-color="accent"><polygon points="63.298,89.092 36.233,73.467 36.233,61.348 63.298,76.973 90.362,61.348 90.362,73.467   " fill="#41c19e" data-fill-palette-color="accent"></polygon></g><g fill="#41c19e" data-fill-palette-color="accent"><polygon points="9.638,42.012 36.703,26.386 47.198,32.446 20.134,48.072 20.134,79.324 9.638,73.264   " fill="#41c19e" data-fill-palette-color="accent"></polygon></g><g fill="#41c19e" data-fill-palette-color="accent"><polygon points="77.083,18.872 50.018,3.247 39.522,9.307 66.586,24.932 66.586,56.184 77.083,50.124   " fill="#41c19e" data-fill-palette-color="accent"></polygon></g><g fill="#41c19e" data-fill-palette-color="accent"><polygon points="23.01,81.127 23.011,49.876 33.507,43.816 33.507,75.068 60.571,90.693 50.075,96.754   " fill="#41c19e" data-fill-palette-color="accent"></polygon></g><g fill="#41c19e" data-fill-palette-color="accent"><polygon points="90.362,58.092 90.362,26.84 79.866,20.78 79.866,52.031 52.802,67.658 63.298,73.719   " fill="#41c19e" data-fill-palette-color="accent"></polygon></g></g></svg></g></svg></g></svg></g></svg></g></svg></g><defs></defs></svg><rect width="395.52" height="94.49087429055434" fill="none" stroke="none" visibility="hidden"></rect></g></svg></g></svg>