<svg xmlns="http://www.w3.org/2000/svg" width="600" height="400" viewBox="0 0 600 400"><rect width="100%" height="100%" fill="#EEE"/><path fill="#31343C" d="M155.35 217.8h44v-47.3q0-6.7.9-14.8l-44.9 62.1Zm65.5 0h18.2v14.3q0 2-1.3 3.45-1.3 1.45-3.7 1.45h-13.2v35.3h-21.5V237h-61q-2.5 0-4.4-1.55-1.9-1.55-2.4-3.85l-2.6-12.5 68.5-91.5h23.4v90.2Zm134.3-17.8q0 18.9-4.05 32.85-4.05 13.95-11.2 23.05-7.15 9.1-16.9 13.55-9.75 4.45-21.05 4.45T281 269.45q-9.65-4.45-16.75-13.55-7.1-9.1-11.1-23.05-4-13.95-4-32.85 0-19 4-32.9 4-13.9 11.1-23T281 130.55q9.65-4.45 20.95-4.45 11.3 0 21.05 4.45t16.9 13.55q7.15 9.1 11.2 23 4.05 13.9 4.05 32.9Zm-25.5 0q0-15.7-2.3-26t-6.15-16.4q-3.85-6.1-8.85-8.55-5-2.45-10.4-2.45-5.3 0-10.25 2.45t-8.75 8.55q-3.8 6.1-6.05 16.4-2.25 10.3-2.25 26t2.25 26q2.25 10.3 6.05 16.4 3.8 6.1 8.75 8.55 4.95 2.45 10.25 2.45 5.4 0 10.4-2.45t8.85-8.55q3.85-6.1 6.15-16.4 2.3-10.3 2.3-26Zm57.7 17.8h44v-47.3q0-6.7.9-14.8l-44.9 62.1Zm65.5 0h18.2v14.3q0 2-1.3 3.45-1.3 1.45-3.7 1.45h-13.2v35.3h-21.5V237h-61q-2.5 0-4.4-1.55-1.9-1.55-2.4-3.85l-2.6-12.5 68.5-91.5h23.4v90.2Z"/></svg>